<svg xmlns="http://www.w3.org/2000/svg" width="106.458" height="106.458" viewBox="0 0 106.458 106.458">
  <g id="组_1" data-name="组 1" transform="translate(-160.771 -260.729)">
    <g id="微信" transform="translate(160.771 260.729)">
      <path id="路径_2" data-name="路径 2" d="M322.786,355.367m-3.484,0a3.484,3.484,0,1,0,3.484-3.484A3.484,3.484,0,0,0,319.3,355.367Z" transform="translate(-286.107 -315.3)" fill="#71db3c"/>
      <path id="路径_3" data-name="路径 3" d="M472.662,354.436m-3.484,0a3.484,3.484,0,1,0,3.484-3.484A3.484,3.484,0,0,0,469.178,354.436Z" transform="translate(-420.401 -314.466)" fill="#71db3c"/>
      <path id="路径_4" data-name="路径 4" d="M555.38,513.489m-2.419,0a2.419,2.419,0,1,0,2.419-2.419A2.42,2.42,0,0,0,552.96,513.489Z" transform="translate(-495.473 -457.937)" fill="#71db3c"/>
      <path id="路径_5" data-name="路径 5" d="M673.6,515.351m-2.419,0a2.419,2.419,0,1,0,2.419-2.42A2.419,2.419,0,0,0,671.185,515.351Z" transform="translate(-601.407 -459.605)" fill="#71db3c"/>
      <path id="路径_6" data-name="路径 6" d="M53.229,0a53.229,53.229,0,1,0,53.229,53.229A53.2,53.2,0,0,0,53.229,0Zm-9.1,65.52a36.549,36.549,0,0,1-7.839-1.161L28.453,68.23l2.226-6.678c-5.613-3.871-8.9-8.9-8.9-15.1,0-10.646,10.065-18.969,22.356-18.969,10.936,0,20.614,6.678,22.55,15.678a15.68,15.68,0,0,0-2.129-.1c-10.646,0-18.969,7.936-18.969,17.711a17.943,17.943,0,0,0,.677,4.645c-.774,0-1.452.1-2.129.1Zm32.712,7.839,1.645,5.613-6.1-3.387a26.872,26.872,0,0,1-6.678,1.161c-10.646,0-18.969-7.258-18.969-16.162s8.323-16.162,18.969-16.162c10.065,0,18.969,7.258,18.969,16.162,0,4.936-3.291,9.388-7.839,12.775Z" fill="#71db3c"/>
    </g>
  </g>
</svg>
